<?xml version="1.0" encoding="UTF-8" standalone="no"?>
<!DOCTYPE svg PUBLIC "-//W3C//DTD SVG 1.1//EN" "http://www.w3.org/Graphics/SVG/1.1/DTD/svg11.dtd">
<svg width="100%" height="100%" viewBox="0 0 1080 1080" version="1.1" xmlns="http://www.w3.org/2000/svg" xmlns:xlink="http://www.w3.org/1999/xlink" xml:space="preserve" xmlns:serif="http://www.serif.com/" style="fill-rule:evenodd;clip-rule:evenodd;stroke-linejoin:round;stroke-miterlimit:2;">
    <g id="ghost" transform="matrix(12.8371,0,0,12.6845,-2.36203,-12.2279)">
        <path d="M33.852,69.332C33.852,69.158 33.712,69.017 33.54,69.017L0.521,69.017C0.349,69.017 0.209,69.158 0.209,69.332L0.209,85.716C0.209,85.89 0.349,86.031 0.521,86.031L33.54,86.031C33.712,86.031 33.852,85.89 33.852,85.716L33.852,69.332Z" style="fill:rgb(102,41,126);"/>
        <path d="M84.294,69.332C84.294,69.158 84.154,69.017 83.982,69.017L50.984,69.017C50.812,69.017 50.672,69.158 50.672,69.332L50.672,85.716C50.672,85.89 50.812,86.031 50.984,86.031L83.982,86.031C84.154,86.031 84.294,85.89 84.294,85.716L84.294,69.332Z" style="fill:rgb(102,41,126);"/>
        <path d="M84.305,35.305C84.305,35.131 84.165,34.99 83.993,34.99L0.496,34.99C0.324,34.99 0.184,35.131 0.184,35.305L0.184,51.689C0.184,51.863 0.324,52.004 0.496,52.004L83.993,52.004C84.165,52.004 84.305,51.863 84.305,51.689L84.305,35.305Z" style="fill:rgb(102,41,126);"/>
        <path d="M50.678,1.279C50.678,1.105 50.538,0.964 50.366,0.964L0.521,0.964C0.349,0.964 0.209,1.105 0.209,1.279L0.209,17.662C0.209,17.836 0.349,17.977 0.521,17.977L50.366,17.977C50.538,17.977 50.678,17.836 50.678,17.662L50.678,1.279Z" style="fill:rgb(102,41,126);"/>
        <path d="M84.315,1.279C84.315,1.105 84.175,0.964 84.003,0.964L67.806,0.964C67.634,0.964 67.494,1.105 67.494,1.279L67.494,17.662C67.494,17.836 67.634,17.977 67.806,17.977L84.003,17.977C84.175,17.977 84.315,17.836 84.315,17.662L84.315,1.279Z" style="fill:rgb(102,41,126);"/>
    </g>
</svg>
