<?xml version="1.0" encoding="UTF-8" standalone="no"?>
<!DOCTYPE svg PUBLIC "-//W3C//DTD SVG 1.1//EN" "http://www.w3.org/Graphics/SVG/1.1/DTD/svg11.dtd">
<svg width="100%" height="100%" viewBox="0 0 1080 1080" version="1.1" xmlns="http://www.w3.org/2000/svg" xmlns:xlink="http://www.w3.org/1999/xlink" xml:space="preserve" xmlns:serif="http://www.serif.com/" style="fill-rule:evenodd;clip-rule:evenodd;stroke-linejoin:round;stroke-miterlimit:2;">
    <g id="less" transform="matrix(1.66507,0,0,1.66507,7.09503,113.659)">
        <path d="M612.7,219C612.7,198.5 615.9,186.4 615.9,164.4C615.9,130.2 603.3,119.2 575.4,119.2L554.9,119.2L554.9,143.4L561.2,143.4C575.4,143.4 578.5,148.1 578.5,165.5C578.5,181.8 576.9,198.1 576.9,217C576.9,241.2 584.8,250.6 600.5,254.3L600.5,255.9C584.7,259.6 576.9,269 576.9,293.2C576.9,312.1 578.5,327.4 578.5,344.7C578.5,362.6 574.8,367.3 561.2,367.3L561.2,367.8L554.9,367.8L554.9,393L575.4,393C603.2,393 615.9,382 615.9,347.8C615.9,325.2 612.7,313.6 612.7,293.2C612.7,282.2 619.5,270.6 640,269.6L640,242.3C619.5,241.6 612.7,230 612.7,219ZM507.1,251C491.3,244.7 476.6,241 476.6,230.5C476.6,222.6 482.9,217.9 494.5,217.9C506.1,217.9 516.6,222.6 528.1,231L549.1,203.2C536,193.2 518.1,182.7 493.9,182.7C458.2,182.7 434,203.2 434,232.1C434,257.8 456.6,271 475.5,278.3C491.8,284.6 507.6,289.9 507.6,300.4C507.6,308.3 501.3,313.5 487.1,313.5C474,313.5 460.8,308.2 446.6,297.2L425.6,327.7C441.4,340.8 465.5,349.8 485.5,349.8C527.5,349.8 550.1,327.7 550.1,298.8C550.1,269.9 527.6,257.8 507.1,251ZM148.2,310.4C144.5,310.4 139.8,307.2 139.8,297.3L139.8,119.1L65.2,119.1C36.8,119.1 24.2,130.1 24.2,164.3C24.2,186.9 27.4,199.5 27.4,218.9C27.4,229.9 20.6,241.5 0.1,242.5L0.1,269.8C20.6,270.3 27.4,281.9 27.4,292.9C27.4,312.3 24.2,323.9 24.2,346.5C24.2,380.7 36.8,391.7 64.7,391.7L85.2,391.7L85.2,367.5L78.9,367.5C65.8,367.5 61.6,362.2 61.6,344.9C61.6,327.6 63.2,312.8 63.2,293.4C63.2,269.2 55.3,259.8 39.6,256.1L39.6,254.5C55.4,250.8 63.2,241.4 63.2,217.2C63.2,198.3 61.6,183 61.6,165.7C61.6,148.4 65.3,143.6 78.9,143.6L93,143.6L93,294.4C93,326.5 104,347.5 136.1,347.5C146.1,347.5 154,345.9 159.7,343.8L154.4,309.6C151.3,310.4 149.8,310.4 148.2,310.4ZM379.9,251C363.6,244.7 348.9,241 348.9,230.5C348.9,222.6 355.2,217.9 366.8,217.9C378.4,217.9 388.9,222.6 400.4,231L421.4,203.2C408.3,193.2 390.4,182.7 366.2,182.7C330.5,182.7 306.3,203.2 306.3,232.1C306.3,257.8 328.9,271 347.8,278.3C364.1,284.6 379.9,289.9 379.9,300.4C379.9,308.3 373.6,313.5 359.4,313.5C346.3,313.5 333.1,308.2 318.9,297.2L298.4,327.7C314.2,340.8 338.3,349.8 358.3,349.8C400.3,349.8 422.9,327.7 422.9,298.8C423,269.9 400.4,257.8 379.9,251ZM224.9,182.2C186.5,182.2 149.8,214.3 150.8,264.7C150.8,316.7 185,347.2 230.1,347.2C249,347.2 270,340.4 286.3,329.3L270.5,301.5C258.9,308.3 247.9,311.5 236.3,311.5C215.3,311.5 199,301.5 194.8,277.3L290,277.3C290.5,273.6 291.6,266.3 291.6,257.9C292.2,215.3 269,182.2 224.9,182.2ZM194.9,248.4C198.1,227.4 210.7,217.4 225.4,217.4C244.3,217.4 251.7,230.5 251.7,248.4L194.9,248.4Z" style="fill:rgb(102,41,126);fill-rule:nonzero;"/>
    </g>
</svg>
