<?xml version="1.0" encoding="UTF-8" standalone="no"?>
<!DOCTYPE svg PUBLIC "-//W3C//DTD SVG 1.1//EN" "http://www.w3.org/Graphics/SVG/1.1/DTD/svg11.dtd">
<svg width="100%" height="100%" viewBox="0 0 1080 1080" version="1.1" xmlns="http://www.w3.org/2000/svg" xmlns:xlink="http://www.w3.org/1999/xlink" xml:space="preserve" xmlns:serif="http://www.serif.com/" style="fill-rule:evenodd;clip-rule:evenodd;stroke-linejoin:round;stroke-miterlimit:2;">
    <g id="mongo" transform="matrix(0.760418,0,0,0.760418,120.784,71.4065)">
        <g transform="matrix(1.48704,0,0,1,119.018,-56.4093)">
            <path d="M295.27,3.65L330.85,70.48C338.85,82.81 347.52,93.73 357.72,103.9C387.51,133.69 415.8,164.89 441.22,198.31C501.5,277.47 542.17,365.38 571.2,460.45C588.62,518.53 598.07,578.11 598.78,638.35C601.69,818.46 539.95,973.11 415.47,1101.63C395.14,1121.96 373.39,1140.79 350.06,1157.54C337.73,1157.54 331.89,1148.08 326.81,1139.38C317.36,1123.42 311.56,1105.21 308.65,1087.09C304.27,1065.29 301.4,1043.51 302.82,1021.01L302.82,1010.85C301.82,1008.68 290.95,8.78 295.28,3.66L295.28,3.67L295.27,3.65Z" style="fill:rgb(35,0,0);fill-rule:nonzero;"/>
        </g>
        <g transform="matrix(1.48704,0,0,1,119.018,-56.4093)">
            <path d="M295.27,1.43C293.81,-1.48 292.36,0.72 290.89,2.14C291.6,16.72 286.51,29.72 278.56,42.14C269.81,54.47 258.23,63.94 246.6,74.1C182.03,130.01 131.2,197.55 90.49,273.08C36.33,374.74 8.41,483.68 0.5,598.38C-3.12,639.75 13.59,785.74 26.63,827.86C62.21,939.68 126.12,1033.38 208.9,1114.7C229.23,1134.28 250.98,1152.44 273.48,1169.9C280.02,1169.9 280.73,1164.07 282.22,1159.73C285.07,1150.45 287.28,1140.97 288.76,1131.39L303.34,1022.49L295.26,1.43L295.27,1.43Z" style="fill:rgb(102,41,126);fill-rule:nonzero;"/>
        </g>
        <g transform="matrix(1.48704,0,0,1,119.018,-56.4093)">
            <path d="M330.85,1201.77C332.31,1185.1 340.31,1171.27 349.02,1157.48C340.27,1153.86 333.77,1146.65 328.69,1138.61C324.31,1131.36 320.69,1122.65 317.86,1114.65C307.69,1084.15 305.53,1052.15 302.61,1020.99L302.61,1002.12C298.99,1005.03 298.23,1029.7 298.23,1033.37C296.2,1066.22 291.69,1099.17 285.15,1131.42C282.98,1144.5 281.53,1157.54 273.48,1169.16C273.48,1170.62 273.48,1172.07 274.19,1174.25C287.27,1212.75 290.86,1251.95 293.06,1291.91L293.06,1306.49C293.06,1323.9 292.35,1320.23 306.81,1326.07C312.64,1328.24 319.14,1328.98 324.97,1333.32C329.35,1333.32 330.06,1329.7 330.06,1326.78L327.89,1302.82L327.89,1235.99C327.18,1224.32 329.35,1212.74 330.8,1201.83L330.85,1201.77Z" style="fill:rgb(182,190,234);fill-rule:nonzero;"/>
        </g>
    </g>
</svg>
