<?xml version="1.0" encoding="UTF-8" standalone="no"?>
<!DOCTYPE svg PUBLIC "-//W3C//DTD SVG 1.1//EN" "http://www.w3.org/Graphics/SVG/1.1/DTD/svg11.dtd">
<svg width="100%" height="100%" viewBox="0 0 1080 1080" version="1.1" xmlns="http://www.w3.org/2000/svg" xmlns:xlink="http://www.w3.org/1999/xlink" xml:space="preserve" xmlns:serif="http://www.serif.com/" style="fill-rule:evenodd;clip-rule:evenodd;stroke-linejoin:round;stroke-miterlimit:2;">
    <path id="nginx" d="M546.365,9.915C550.073,9.936 553.759,10.949 557.255,13.132L995.548,266.098C1003.2,270.499 1007.75,278.849 1007.31,287.662L1007.31,792.633C1007.75,801.445 1003.2,809.795 995.548,814.196L619.03,1031.82C599.303,1043.62 579.359,1055.07 559.209,1066.13C550.398,1071.04 541.554,1071.04 532.71,1066.13L95.411,814.13C87.561,809.228 83.652,803.331 83.652,793.527L83.652,287.695C83.146,278.606 88.196,270.066 96.405,266.131L532.743,14.126C537.036,11.445 541.617,9.933 546.17,9.915L546.365,9.915ZM380.893,428.707L380.893,723.508C380.893,756.831 354.394,786.245 319.118,785.284C297.587,784.29 280.893,775.479 269.432,756.864C263.536,748.053 261.582,738.248 261.582,727.45L261.582,317.942C261.582,290.449 278.243,270.906 299.806,262.062C321.37,253.218 342.934,255.205 364.53,262.062C385.133,267.958 400.801,280.677 414.216,296.378L675.032,609.165C676.026,610.159 677.019,612.146 678.94,614.068L678.94,315.954C678.94,284.586 700.471,260.075 730.945,257.127C769.169,252.224 794.675,279.651 798.583,308.137L798.583,725.496C798.583,748.682 787.785,765.708 768.176,776.506C753.469,784.357 737.768,786.311 721.14,785.317C697.093,783.717 674.278,774.037 656.416,757.858C646.612,749.047 639.755,738.248 630.911,728.444L382.814,431.324C382.814,430.33 381.821,429.337 380.827,428.343L380.893,428.707Z" style="fill:rgb(102,41,126);"/>
</svg>
