<?xml version="1.0" encoding="UTF-8" standalone="no"?>
<!DOCTYPE svg PUBLIC "-//W3C//DTD SVG 1.1//EN" "http://www.w3.org/Graphics/SVG/1.1/DTD/svg11.dtd">
<svg width="100%" height="100%" viewBox="0 0 1080 1080" version="1.1" xmlns="http://www.w3.org/2000/svg" xmlns:xlink="http://www.w3.org/1999/xlink" xml:space="preserve" xmlns:serif="http://www.serif.com/" style="fill-rule:evenodd;clip-rule:evenodd;stroke-linejoin:round;stroke-miterlimit:2;">
    <g id="ubuntu" transform="matrix(2.15903,0,0,2.15903,7.3426,7.34368)">
        <g>
            <g>
                <path d="M168.839,241.198C168.839,203.081 186.733,169.148 214.524,147.302L171.988,79.22C136.34,104.823 109.516,141.88 96.861,185.016C116.672,197.767 129.81,220.047 129.81,245.369C129.81,269.793 117.667,291.326 99.027,304.287C112.633,345.147 139.147,380.125 173.733,404.4L213.292,334.042C186.187,312.204 168.839,278.724 168.839,241.198Z" style="fill:rgb(102,41,126);fill-rule:nonzero;"/>
            </g>
        </g>
        <g>
            <path d="M109.704,245.368C109.704,273.852 86.572,296.96 58.095,296.96C29.604,296.96 6.489,273.853 6.489,245.368C6.489,216.898 29.604,193.791 58.095,193.791C86.572,193.791 109.704,216.898 109.704,245.368Z" style="fill:rgb(102,41,126);fill-rule:nonzero;"/>
        </g>
        <g>
            <g>
                <path d="M399.494,370.126C411.496,370.126 422.795,373.062 432.724,378.275C463.648,345.684 483.63,302.68 486.935,255.047L406.787,253.496C400.616,313.607 349.833,360.437 288.11,360.437C271.026,360.437 254.722,356.843 240.009,350.344L200.168,420.048C226.728,433.117 256.544,440.459 288.109,440.459C301.731,440.459 315.09,439.08 327.963,436.453C330.709,399.381 361.68,370.126 399.494,370.126Z" style="fill:rgb(102,41,126);fill-rule:nonzero;"/>
            </g>
        </g>
        <g>
            <path d="M451.071,441.847C451.071,470.325 427.987,493.423 399.494,493.423C371.001,493.423 347.9,470.325 347.9,441.847C347.9,413.347 371.001,390.255 399.494,390.255C427.987,390.255 451.071,413.347 451.071,441.847Z" style="fill:rgb(102,41,126);fill-rule:nonzero;"/>
        </g>
        <g>
            <g>
                <path d="M438.211,110.152C426.534,118.421 412.243,123.315 396.812,123.315C357.175,123.315 325.082,91.213 325.082,51.6C325.082,49.496 325.176,47.461 325.332,45.419C313.282,43.112 300.829,41.928 288.11,41.928C256.251,41.928 226.122,49.426 199.421,62.705L239.028,132.455C254.007,125.707 270.621,121.911 288.11,121.911C349.287,121.911 399.711,167.985 406.601,227.325L486.748,224.878C483.209,181.12 465.487,141.372 438.211,110.152Z" style="fill:rgb(102,41,126);fill-rule:nonzero;"/>
            </g>
        </g>
        <g>
            <path d="M448.374,51.601C448.374,80.093 425.336,103.193 396.813,103.193C368.322,103.193 345.221,80.093 345.221,51.601C345.22,23.107 368.321,0 396.812,0C425.335,0 448.374,23.107 448.374,51.601Z" style="fill:rgb(102,41,126);fill-rule:nonzero;"/>
        </g>
    </g>
</svg>
