<?xml version="1.0" standalone="no"?>
<!DOCTYPE svg PUBLIC "-//W3C//DTD SVG 20010904//EN"
 "http://www.w3.org/TR/2001/REC-SVG-20010904/DTD/svg10.dtd">
<svg version="1.0" xmlns="http://www.w3.org/2000/svg"
 width="260.000000pt" height="260.000000pt" viewBox="0 0 260.000000 260.000000"
 preserveAspectRatio="xMidYMid meet">
<metadata>
Created by potrace 1.11, written by Peter Selinger 2001-2013
</metadata>
<g transform="translate(0.000000,260.000000) scale(0.100000,-0.100000)"
fill="#000000" stroke="none">
<path d="M1310 1814 c-14 -8 -42 -13 -62 -12 -22 1 -45 -5 -55 -14 -10 -8 -26
-18 -35 -21 -10 -3 -20 -19 -23 -34 -4 -15 -10 -35 -16 -43 -20 -32 -21 -42
-7 -85 8 -24 11 -42 7 -39 -15 9 -10 -30 6 -53 10 -14 22 -20 33 -17 14 5 15
4 2 -5 -13 -9 -12 -16 7 -55 32 -65 61 -95 101 -102 32 -6 33 -8 15 -18 -34
-20 -103 -79 -103 -89 0 -6 -6 -18 -14 -26 -26 -31 -116 -218 -116 -241 0 -7
-16 -30 -35 -52 -19 -23 -32 -45 -29 -50 3 -5 2 -7 -3 -6 -14 4 -63 -34 -56
-45 3 -5 1 -7 -5 -3 -6 3 -30 -7 -54 -23 -24 -15 -53 -32 -65 -35 -12 -4 -30
-17 -40 -30 -18 -22 -87 -71 -135 -95 -15 -8 -25 -18 -22 -22 3 -5 -1 -6 -9
-3 -15 5 -137 -72 -137 -87 0 -6 -4 -8 -8 -5 -5 3 -21 -9 -37 -26 -27 -29 -32
-30 -87 -25 -51 4 -64 10 -103 46 -96 88 -152 23 -84 -97 17 -30 28 -56 25
-59 -3 -3 -41 -5 -85 -4 l-81 1 0 -170 0 -170 1300 0 1300 0 0 321 c0 176 -4
318 -8 315 -15 -9 -325 -96 -329 -92 -2 2 6 20 17 39 12 20 22 50 22 66 1 24
6 31 22 32 12 0 55 12 96 27 81 30 87 37 89 120 2 68 -17 125 -99 307 -75 164
-80 171 -131 208 -29 20 -60 37 -70 37 -10 0 -46 18 -79 39 -85 55 -150 76
-240 76 -72 0 -78 -2 -127 -37 -59 -44 -91 -48 -121 -13 -18 20 -31 25 -70 25
-42 0 -50 3 -60 25 -8 17 -8 25 -1 25 6 0 7 5 4 10 -3 6 -1 10 4 10 17 0 13
41 -5 61 -13 14 -14 23 -3 57 7 23 8 45 3 54 -23 39 -65 78 -83 78 -11 0 -35
9 -53 20 -38 23 -35 23 -68 4z m-120 -268 c0 -3 -4 -8 -10 -11 -5 -3 -10 -1
-10 4 0 6 5 11 10 11 6 0 10 -2 10 -4z m304 -64 c2 -4 -4 -8 -14 -8 -10 0 -16
4 -14 8 3 4 9 8 14 8 5 0 11 -4 14 -8z m-244 -16 c0 -2 -7 -7 -16 -10 -8 -3
-12 -2 -9 4 6 10 25 14 25 6z m40 0 c0 -2 -7 -7 -16 -10 -8 -3 -12 -2 -9 4 6
10 25 14 25 6z m33 -101 c-3 -9 -8 -14 -10 -11 -3 3 -2 9 2 15 9 16 15 13 8
-4z m46 -551 c47 -14 55 -14 76 0 22 14 25 13 70 -26 66 -58 99 -137 53 -124
-20 6 -370 45 -440 49 -14 1 -23 6 -20 12 9 15 45 39 61 42 43 6 61 15 61 31
0 13 2 14 9 4 6 -11 15 -9 42 7 19 12 34 21 35 21 0 0 24 -7 53 -16z m-405
-12 c3 -5 -1 -9 -9 -9 -8 0 -12 4 -9 9 3 4 7 8 9 8 2 0 6 -4 9 -8z m-63 -35
c-10 -9 -11 -8 -5 6 3 10 9 15 12 12 3 -3 0 -11 -7 -18z m69 -8 c0 -5 -4 -9
-8 -9 -5 0 -9 7 -9 15 0 8 4 12 9 9 4 -3 8 -9 8 -15z m0 -33 c0 -2 -7 -7 -16
-10 -8 -3 -12 -2 -9 4 6 10 25 14 25 6z m-155 -66 c3 -6 -1 -7 -9 -4 -18 7
-21 14 -7 14 6 0 13 -4 16 -10z m69 1 c3 -5 -2 -15 -12 -22 -15 -12 -16 -12
-5 2 7 9 10 19 6 22 -3 4 -4 7 0 7 3 0 8 -4 11 -9z m166 5 c0 -3 -4 -8 -10
-11 -5 -3 -10 -1 -10 4 0 6 5 11 10 11 6 0 10 -2 10 -4z m40 0 c0 -2 -7 -7
-16 -10 -8 -3 -12 -2 -9 4 6 10 25 14 25 6z m-360 -10 c0 -2 -8 -10 -17 -17
-16 -13 -17 -12 -4 4 13 16 21 21 21 13z m253 -11 c-3 -9 -8 -14 -10 -11 -3 3
-2 9 2 15 9 16 15 13 8 -4z m182 -14 c3 -5 2 -12 -3 -15 -5 -3 -9 1 -9 9 0 17
3 19 12 6z m-151 -9 c2 -4 -4 -8 -14 -8 -10 0 -16 4 -14 8 3 4 9 8 14 8 5 0
11 -4 14 -8z m71 -10 c-3 -3 -11 0 -18 7 -9 10 -8 11 6 5 10 -3 15 -9 12 -12z
m-435 -12 c0 -5 -4 -10 -10 -10 -5 0 -10 5 -10 10 0 6 5 10 10 10 6 0 10 -4
10 -10z m34 -6 c3 -8 2 -12 -4 -9 -6 3 -10 10 -10 16 0 14 7 11 14 -7z m166
-18 c0 -2 -8 -10 -17 -17 -16 -13 -17 -12 -4 4 13 16 21 21 21 13z m-170 -10
c0 -2 -8 -10 -17 -17 -16 -13 -17 -12 -4 4 13 16 21 21 21 13z m101 -19 c-10
-9 -11 -8 -5 6 3 10 9 15 12 12 3 -3 0 -11 -7 -18z m125 8 c-1 -8 -5 -17 -8
-21 -5 -4 -4 16 1 34 3 9 9 -1 7 -13z m154 11 c0 -2 -8 -10 -17 -17 -16 -13
-17 -12 -4 4 13 16 21 21 21 13z m120 0 c0 -2 -8 -10 -17 -17 -16 -13 -17 -12
-4 4 13 16 21 21 21 13z m-631 -39 c8 -10 7 -14 -2 -14 -8 0 -14 6 -14 14 0 7
1 13 2 13 2 0 8 -6 14 -13z m96 -7 c3 -5 1 -10 -4 -10 -6 0 -11 5 -11 10 0 6
2 10 4 10 3 0 8 -4 11 -10z m39 -6 c3 -8 2 -12 -4 -9 -6 3 -10 10 -10 16 0 14
7 11 14 -7z m-77 -19 c0 -8 -4 -12 -9 -9 -5 3 -6 10 -3 15 9 13 12 11 12 -6z
m200 0 c0 -8 -4 -12 -9 -9 -5 3 -6 10 -3 15 9 13 12 11 12 -6z m-307 -9 c0 -2
-8 -10 -17 -17 -16 -13 -17 -12 -4 4 13 16 21 21 21 13z m150 0 c0 -2 -7 -7
-16 -10 -8 -3 -12 -2 -9 4 6 10 25 14 25 6z m-120 -30 c0 -2 -8 -10 -17 -17
-16 -13 -17 -12 -4 4 13 16 21 21 21 13z m34 -14 c3 -5 -1 -9 -9 -9 -8 0 -12
4 -9 9 3 4 7 8 9 8 2 0 6 -4 9 -8z m166 -2 c0 -5 -5 -10 -11 -10 -5 0 -7 5 -4
10 3 6 8 10 11 10 2 0 4 -4 4 -10z m31 -7 c13 -16 12 -17 -3 -4 -10 7 -18 15
-18 17 0 8 8 3 21 -13z m89 -13 c0 -5 -2 -10 -4 -10 -3 0 -8 5 -11 10 -3 6 -1
10 4 10 6 0 11 -4 11 -10z m-403 -15 c0 -8 -4 -12 -9 -9 -5 3 -6 10 -3 15 9
13 12 11 12 -6z m94 -18 c-10 -9 -11 -8 -5 6 3 10 9 15 12 12 3 -3 0 -11 -7
-18z m63 7 c3 -8 2 -12 -4 -9 -6 3 -10 10 -10 16 0 14 7 11 14 -7z m116 10 c0
-8 -19 -13 -24 -6 -3 5 1 9 9 9 8 0 15 -2 15 -3z m-255 -52 c-3 -3 -11 0 -18
7 -9 10 -8 11 6 5 10 -3 15 -9 12 -12z m130 9 c-9 -8 -36 -10 -30 -2 2 4 11 8
20 8 8 0 13 -3 10 -6z m91 -3 c3 -4 -1 -5 -10 -4 -8 1 -18 5 -22 8 -3 4 1 5
10 4 8 -1 18 -5 22 -8z"/>
</g>
</svg>
