<?xml version="1.0" encoding="UTF-8" standalone="no"?>
<!DOCTYPE svg PUBLIC "-//W3C//DTD SVG 1.1//EN" "http://www.w3.org/Graphics/SVG/1.1/DTD/svg11.dtd">
<svg width="100%" height="100%" viewBox="0 0 1080 1080" version="1.1" xmlns="http://www.w3.org/2000/svg" xmlns:xlink="http://www.w3.org/1999/xlink" xml:space="preserve" xmlns:serif="http://www.serif.com/" style="fill-rule:evenodd;clip-rule:evenodd;stroke-linejoin:round;stroke-miterlimit:2;">
    <g id="material" transform="matrix(4.12486,0,0,4.12486,12.0181,120.87)">
        <path d="M0,110.848L0,0L96,55.424L96,92.373L32,55.424L32,129.323L0,110.848Z" style="fill:rgb(133,87,181);fill-rule:nonzero;"/>
        <path d="M96,55.424L192,0L192,110.848L128,147.797L96,129.323L160,92.373L160,55.424L96,92.373L96,55.424Z" style="fill:rgb(102,41,126);fill-rule:nonzero;"/>
        <path d="M96,129.323L96,166.272L160,203.221L160,166.272L96,129.323Z" style="fill:rgb(133,87,181);fill-rule:nonzero;"/>
        <path d="M160,203.221L256,147.797L256,73.899L224,92.373L224,129.323L160,166.272L160,203.221ZM224,55.424L224,18.475L256,0L256,36.949L224,55.424Z" style="fill:rgb(102,41,126);fill-rule:nonzero;"/>
    </g>
</svg>
