<?xml version="1.0" encoding="UTF-8" standalone="no"?>
<!DOCTYPE svg PUBLIC "-//W3C//DTD SVG 1.1//EN" "http://www.w3.org/Graphics/SVG/1.1/DTD/svg11.dtd">
<svg width="100%" height="100%" viewBox="0 0 1080 1080" version="1.1" xmlns="http://www.w3.org/2000/svg" xmlns:xlink="http://www.w3.org/1999/xlink" xml:space="preserve" xmlns:serif="http://www.serif.com/" style="fill-rule:evenodd;clip-rule:evenodd;stroke-linejoin:round;stroke-miterlimit:2;">
    <g id="nodejs" transform="matrix(2.11084,0,0,2.11084,2.27374e-13,-24.529)">
        <path d="M243.195,276.559L243.195,210L185.553,176.721L127.912,210L127.912,276.559L185.553,309.838L243.195,276.559Z" style="fill:rgb(133,87,181);fill-rule:nonzero;"/>
        <path d="M470.204,266.459L507.768,288.151L470.204,309.843L412.567,276.563L412.567,210.003L470.204,176.723L505.135,196.9C508.635,211.664 510.84,226.92 511.645,242.541L490.287,254.871L490.287,231.685L470.204,220.097L450.121,231.685L450.121,254.871L470.204,266.459Z" style="fill:rgb(35,0,0);fill-rule:nonzero;"/>
        <path d="M481.392,249.74L481.392,236.82L470.203,230.36L459.013,236.82L459.013,249.74L470.203,256.201L481.392,249.74Z" style="fill:rgb(102,41,126);fill-rule:nonzero;"/>
        <path d="M100.686,210.004L100.686,297.775L62.244,275.843L62.244,230.85L43.05,219.763L23.855,230.849L23.855,275.842L2.027,288.298C0.69,277.723 0,266.94 0,256C0,235.959 2.299,216.451 6.656,197.736L43.05,176.723L100.686,210.004Z" style="fill:rgb(35,0,0);fill-rule:nonzero;"/>
        <g transform="matrix(0.5,0.866,-0.866,0.5,303.456,-39.0495)">
            <rect x="127.906" y="210.001" width="115.281" height="66.557" style="fill:rgb(102,41,126);"/>
        </g>
        <path d="M127.912,276.559L147.704,244.283L127.912,210L127.912,276.559Z" style="fill:rgb(182,190,234);fill-rule:nonzero;"/>
        <path d="M223.979,243.277L243.195,210L185.553,176.721L223.979,243.277Z" style="fill:rgb(182,190,234);fill-rule:nonzero;"/>
        <path d="M346.551,99.579L346.551,187.883L327.231,176.723L269.584,210.003L269.584,276.563L327.231,309.843L384.868,276.563L384.868,120.09L346.551,99.579ZM346.446,254.37L327.23,265.467L308.014,254.37L308.014,232.187L327.23,221.09L346.446,232.187L346.446,254.37Z" style="fill:rgb(35,0,0);fill-rule:nonzero;"/>
        <g>
            <path d="M282.149,358.717C282.149,358.717 281.017,348.988 270.61,348.988C260.202,348.988 253.076,350.345 253.076,356.115C253.076,361.885 273.326,361.885 281.019,364.147C288.712,366.409 295.499,372.292 292.105,382.7C288.711,393.108 278.303,394.239 262.239,394.239C246.175,394.239 242.554,380.889 242.554,375.686L251.604,375.686C251.604,375.686 250.472,383.831 261.106,385.188C271.74,386.545 281.908,387.309 283.279,379.08C285.089,368.219 248.888,373.65 245.72,363.016C243.044,354.031 244.588,342.201 262.689,340.39C280.79,338.579 290.745,346.571 290.745,358.491L282.149,358.717Z" style="fill:rgb(102,41,126);fill-rule:nonzero;"/>
            <path d="M194.723,401.131L214.731,412.682C224.784,418.486 237.35,411.231 237.35,399.623L237.35,342.128L229.195,342.128L229.195,397.355C229.195,403.694 222.333,407.657 216.842,404.486L202.877,396.424L202.877,337.484L253.92,308.017L304.963,337.484L304.963,396.424L253.92,425.891L239.216,417.402L229.614,421.274L253.919,435.307L313.117,401.128L313.117,332.777L253.92,298.6L194.722,332.779L194.722,401.131L194.723,401.131Z" style="fill:rgb(102,41,126);fill-rule:nonzero;"/>
        </g>
    </g>
</svg>
